<?xml version="1.0" standalone="no"?>
<!DOCTYPE svg PUBLIC "-//W3C//DTD SVG 20010904//EN"
 "http://www.w3.org/TR/2001/REC-SVG-20010904/DTD/svg10.dtd">
<svg version="1.0" xmlns="http://www.w3.org/2000/svg"
 width="1280.000000pt" height="962.000000pt" viewBox="0 0 1280.000000 962.000000"
 preserveAspectRatio="xMidYMid meet">
<g transform="translate(0.000000,962.000000) scale(0.100000,-0.100000)"
fill="#000000" stroke="none">
<path d="M107 9592 c-17 -10 -31 -31 -37 -52 -31 -119 -39 -183 -44 -365 -4
-110 -12 -255 -17 -323 -10 -114 -9 -126 9 -165 60 -128 83 -201 106 -337 16
-95 42 -197 75 -295 l51 -149 0 -131 0 -130 -119 -250 -119 -250 30 -32 c31
-32 31 -33 19 -85 -8 -35 -12 -112 -9 -228 l3 -175 85 -135 85 -135 155 -80
c85 -44 220 -119 300 -166 127 -76 175 -97 388 -175 l243 -88 266 -222 c225
-188 273 -224 307 -229 23 -4 70 -20 106 -35 36 -15 88 -31 115 -34 28 -4 113
-19 190 -32 136 -25 143 -27 254 -91 87 -51 153 -101 285 -217 94 -83 241
-206 327 -273 165 -129 183 -147 272 -283 53 -81 58 -96 110 -295 l55 -210 26
-390 c15 -214 34 -502 43 -640 l17 -250 -33 -297 -33 -297 22 -138 21 -137 59
-62 c57 -59 60 -65 60 -112 0 -28 -6 -54 -13 -60 -6 -5 -70 -17 -142 -27 -593
-77 -1100 -207 -1593 -406 -424 -172 -625 -332 -582 -464 27 -82 241 -236 450
-322 304 -127 602 -172 1260 -193 327 -10 569 -23 1000 -52 241 -16 1125 -15
1655 2 539 18 1521 18 2065 1 206 -7 740 -16 1185 -21 446 -5 907 -14 1025
-20 118 -5 312 -15 430 -21 514 -26 605 -24 1038 17 319 30 623 96 743 161
217 117 415 333 476 519 25 77 26 85 13 126 -19 58 -87 128 -189 195 -188 124
-378 187 -756 250 -36 6 -49 12 -48 23 2 8 45 96 97 195 l94 180 35 195 35
195 10 518 10 519 -44 131 c-41 123 -44 138 -44 241 l0 109 -46 84 c-42 77
-48 96 -65 216 -10 73 -24 143 -30 156 -5 14 -100 171 -211 350 l-201 326 -13
99 c-8 54 -23 129 -35 166 -19 65 -24 71 -182 227 -136 134 -181 171 -277 231
-114 71 -117 74 -385 366 l-270 295 -84 27 c-60 18 -114 46 -184 92 -92 62
-101 71 -133 133 -32 64 -47 78 -386 366 -195 165 -398 330 -453 366 l-100 65
-205 46 c-113 25 -223 53 -245 62 -46 19 -243 74 -392 110 -57 13 -167 48
-246 78 l-144 54 -379 11 c-208 7 -469 16 -579 21 -759 35 -759 35 -791 12
l-29 -22 -85 23 -85 22 -28 58 -28 57 -187 1 c-103 0 -445 4 -761 8 l-573 9
-57 56 c-52 51 -71 62 -196 111 -117 46 -160 58 -284 76 l-146 21 -236 -86
c-130 -47 -240 -86 -244 -86 -4 0 -27 18 -52 40 -25 22 -49 40 -53 40 -4 0
-13 15 -20 33 -7 17 -55 75 -107 128 l-93 96 0 126 c0 150 6 143 -146 187 -53
16 -101 33 -106 38 -6 6 -6 41 1 96 9 73 24 119 100 299 75 179 94 235 121
362 l32 150 -26 58 c-14 31 -29 57 -34 57 -4 0 -74 -72 -155 -159 -139 -150
-158 -167 -320 -278 -102 -70 -287 -214 -457 -356 -345 -288 -324 -281 -410
-143 -49 78 -70 102 -191 201 -74 62 -283 251 -463 421 -187 175 -353 323
-385 342 -31 19 -70 42 -86 52 -28 18 -32 18 -58 2z m10219 -4583 l42 -104
-10 -240 c-9 -217 -8 -257 10 -413 l20 -174 35 -36 c19 -21 39 -50 44 -67 7
-23 23 -36 65 -57 48 -23 63 -38 102 -97 64 -99 70 -113 101 -236 l28 -110 90
-88 90 -89 175 -361 174 -362 20 -125 c15 -94 21 -190 25 -385 l4 -260 -73
-230 -73 -230 -45 -3 c-62 -5 -256 13 -580 53 -151 18 -365 43 -475 55 -257
26 -265 28 -265 46 0 8 27 57 59 108 34 55 79 145 105 215 49 128 55 177 35
270 -10 50 -13 53 -253 260 l-242 210 -123 256 -123 256 -24 277 -24 277 48
70 47 70 93 13 c118 17 181 52 216 119 18 36 44 61 132 122 130 90 156 129
209 296 27 86 51 136 110 232 l76 122 39 203 c50 256 48 250 63 246 7 -3 31
-51 53 -109z m-3261 -513 c13 -14 56 -90 94 -170 69 -144 73 -150 531 -752
327 -429 496 -660 576 -788 l114 -180 0 -139 c0 -132 -2 -145 -36 -256 -35
-110 -42 -124 -149 -273 -94 -132 -127 -169 -209 -239 l-98 -82 -67 2 c-36 0
-165 5 -286 11 -399 17 -775 29 -1137 36 -248 4 -360 10 -366 18 -5 6 -28 66
-51 133 -37 109 -41 131 -41 217 l0 95 -65 139 c-63 133 -65 141 -65 216 l0
78 -155 366 c-85 202 -218 543 -295 757 -130 359 -143 400 -160 520 -26 177
-26 201 3 208 90 22 142 18 335 -27 l193 -44 86 23 c47 13 181 43 297 66 l210
43 179 -20 c176 -20 180 -20 220 -1 33 15 243 60 305 66 7 0 24 -10 37 -23z
m-2462 -806 c8 -25 95 -259 191 -520 l176 -475 197 -295 197 -295 23 -114 23
-115 -63 -110 -62 -111 -75 -7 c-190 -20 -835 -57 -843 -49 -5 5 3 36 17 69
14 34 26 68 26 75 0 8 -13 47 -30 87 l-30 73 0 211 c1 194 3 222 30 351 17 82
51 323 80 580 49 427 85 688 97 707 9 15 29 -12 46 -62z m4586 -1702 c5 -13
22 -68 40 -123 l31 -100 -21 -75 c-12 -41 -30 -92 -42 -112 -25 -45 -18 -45
-302 -23 -104 8 -196 15 -203 15 -8 0 -12 6 -10 14 4 20 465 426 484 426 8 0
18 -10 23 -22z"/>
</g>
</svg>
